<svg width="20" height="16" viewBox="0 0 20 16" fill="none" xmlns="http://www.w3.org/2000/svg">
<path fill-rule="evenodd" clip-rule="evenodd" d="M11.7772 1.34589V0.670316C11.7772 0.45883 11.6272 0.276488 11.4198 0.235748C10.9588 0.145111 10.4826 0.0982666 9.99556 0.0982666C9.69634 0.0987244 9.40169 0.116882 9.11223 0.152435C8.93233 0.174255 8.75487 0.202636 8.5794 0.237274C8.37203 0.278625 8.2228 0.460509 8.2228 0.671995V1.34317C5.51006 2.01733 3.39329 4.19965 2.8141 6.9483L0.699954 4.52161C0.442082 4.19187 -0.0841917 4.44364 0.0114805 4.85151L2.65628 14.0662V15.0692C2.6575 15.5871 3.21291 15.917 3.67373 15.6797L9.68475 12.5875C9.88433 12.4851 10.1208 12.4876 10.3181 12.5935L16.3121 15.8175C16.7674 16.0625 17.3199 15.7447 17.3405 15.228C17.3426 15.1714 17.3439 15.115 17.3439 15.0579V14.0655L19.9885 4.85151C20.0843 4.44364 19.5579 4.19187 19.3 4.52161L17.1755 6.96025C16.5822 4.21859 14.4787 2.02539 11.7772 1.34589ZM8.86934 7.74121V9.86034C8.86934 10.0973 8.73232 10.3128 8.51763 10.413L6.52942 11.3407C6.30511 11.4454 6.03992 11.4042 5.85803 11.2361L4.14356 9.65343C3.94535 9.47063 3.89088 9.17919 4.00929 8.93703L4.72645 7.47326C4.82868 7.26376 5.04139 7.13116 5.27423 7.13116H8.25976C8.59636 7.13116 8.86934 7.40445 8.86934 7.74121ZM15.8565 9.65343C16.0547 9.47063 16.1091 9.17919 15.9907 8.93703L15.2736 7.47326C15.1713 7.26376 14.9586 7.13116 14.7258 7.13116H11.7404C11.4037 7.13116 11.1307 7.40445 11.1307 7.74121V9.86034C11.1307 10.0973 11.2677 10.3128 11.4824 10.413L13.4706 11.3407C13.6949 11.4454 13.9601 11.4042 14.1421 11.2361L15.8565 9.65343Z" fill="black"/>
</svg>
